<?xml version="1.0" encoding="utf-8"?><!DOCTYPE svg PUBLIC "-//W3C//DTD SVG 1.1//EN" "http://www.w3.org/Graphics/SVG/1.1/DTD/svg11.dtd"><svg width="48" height="48" viewBox="0 0 48 48" xmlns="http://www.w3.org/2000/svg" xmlns:xlink="http://www.w3.org/1999/xlink"><svg width="16" height="16" viewBox="0 0 16 16" id="convert-ip-ash-icon"><path d="M2 10h1v1H2zM1 9h1v1H1zM2 9h1v1H2zM4 10h1v1H4zM4 9h1v1H4zM5 9h1v1H5zM11 5h1v1h-1zM10 6h1v1h-1zM11 6h1v1h-1zM13 6h1v1h-1zM13 5h1v1h-1zM14 6h1v1h-1z"/><path d="M12 13H6v1h7V4h-1zM3 2v10h1V3h6V2z"/></svg><svg width="16" height="16" viewBox="0 0 16 16" id="convert-ip-icon" x="16"><g fill="#006EFF"><path d="M2 10h1v1H2zM1 9h1v1H1zM2 9h1v1H2zM4 10h1v1H4zM4 9h1v1H4zM5 9h1v1H5zM11 5h1v1h-1zM10 6h1v1h-1zM11 6h1v1h-1zM13 6h1v1h-1zM13 5h1v1h-1zM14 6h1v1h-1z"/><path d="M12 13H6v1h7V4h-1zM3 2v10h1V3h6V2z"/></g></svg><svg width="16" height="16" viewBox="0 0 16 16" id="copy-icon" y="16"><path fill="none" d="M11 4V3H3v8h1V4z"/><path fill="#006EFF" d="M11 5V4H4v7h1V5z"/><path fill="#006EFF" d="M12 4v1h1v8H5v-1H4v2h10V4z"/><path fill="#006EFF" d="M3 11V3h8v1h1V2H2v10h2v-1z"/><path fill="#006EFF" d="M4 11h1v1H4zM11 4h1v1h-1z"/></svg><svg width="16" height="16" viewBox="0 0 16 16" id="dosage-icon" x="16" y="16"><path fill="#006EFF" d="M14 1v13H1V1h13m1-1H0v15h15V0z"/><path fill="#006EFF" d="M2 12h11v1H2z"/><path fill="#006EFF" d="M2 8h1v5H2zM4 8h1v5H4zM10 5h1v8h-1zM12 5h1v8h-1zM6 2h1v11H6zM8 2h1v11H8z"/><path fill="#006EFF" d="M2 8h3v1H2zM6 2h3v1H6zM10 5h3v1h-3z"/></svg><svg width="16" height="16" viewBox="0 0 16 16" id="pencil-icon" x="32"><path fill="none" d="M9.58 7.835L8.167 6.421l3.364-3.364 1.414 1.415zM6.045 8.543L6 8.497V10h1.503l-.044-.043 1.415-1.414-1.415-1.415z"/><path fill="#006EFF" d="M13 13H3V3h3V2H2v12h12V9h-1z"/><path fill="#006EFF" d="M11.887 2h-.714l-.35.35L7.46 5.714l-.708.707L5 8h.503H5v3h3v-.503V11l1.581-1.75.491-.491 3.58-3.58.348-.348v-.718L11.887 2zM7.459 9.957l.044.043H6V8.497l.045.045 1.414-1.414 1.414 1.414-1.414 1.415zm2.122-2.121L8.167 6.421l3.364-3.364 1.414 1.414-3.364 3.365z"/></svg><svg width="16" height="16" viewBox="0 0 16 16" id="plaint-icon" x="32" y="16"><path d="M7 4h1v2H7zM8 4h1v2H8zM7 7h1v5H7zM8 7h1v5H8z"/><path d="M8 2c3.308 0 6 2.692 6 6s-2.692 6-6 6-6-2.692-6-6 2.692-6 6-6m0-1a7 7 0 1 0 0 14A7 7 0 0 0 8 1z"/></svg><svg width="16" height="16" viewBox="0 0 16 16" id="rubbish-icon" y="32"><g fill="#006EFF"><path d="M5 0h5.999v1H5zM1 1.999h14V3H1z"/><path d="M5 1h1v1H5zM10 1h1v1h-1zM3 5h10v10H3V5zM2 16h12.001V4H2v12z"/><path d="M5 1h1v1H5zM6 6h1v8H6zM9 6h1v8H9z"/></g></svg><svg width="16" height="16" viewBox="0 0 16 16" id="th-blue-large-icon" x="16" y="32"><path fill="#006EFF" d="M6 1v5H1V1h5m1-1H0v7h7V0zM14 1v5H9V1h5m1-1H8v7h7V0zM6 9v5H1V9h5m1-1H0v7h7V8zM14 9v5H9V9h5m1-1H8v7h7V8z"/></svg><svg width="16" height="16" viewBox="0 0 16 16" id="th-blue-list-icon" x="32" y="32"><g fill="#006EFF"><path d="M0 7h15v1H0zM0 0h15v1H0zM0 14h15v1H0z"/></g></svg></svg>