<?xml version="1.0" encoding="utf-8"?>
<!-- Generator: Adobe Illustrator 17.0.0, SVG Export Plug-In . SVG Version: 6.00 Build 0)  -->
<!DOCTYPE svg PUBLIC "-//W3C//DTD SVG 1.1//EN" "http://www.w3.org/Graphics/SVG/1.1/DTD/svg11.dtd">
<svg version="1.1" id="图层_1" xmlns="http://www.w3.org/2000/svg" xmlns:xlink="http://www.w3.org/1999/xlink" x="0px" y="0px"
	 width="16px" height="16px" viewBox="0 0 16 16" enable-background="new 0 0 16 16" xml:space="preserve">
<g>
	<polygon fill="none" points="11,4 11,3 3,3 3,11 4,11 4,4 	"/>
	<polygon fill="#006EFF" points="11,5 11,4 4,4 4,11 5,11 5,5 	"/>
	<polygon fill="#006EFF" points="12,4 12,5 13,5 13,13 5,13 5,12 4,12 4,14 14,14 14,4 	"/>
	<polygon fill="#006EFF" points="3,11 3,3 11,3 11,4 12,4 12,2 2,2 2,12 4,12 4,11 	"/>
	<rect x="4" y="11" fill="#006EFF" width="1" height="1"/>
	<rect x="11" y="4" fill="#006EFF" width="1" height="1"/>
</g>
</svg>
