<?xml version="1.0" encoding="utf-8"?>
<!-- Generator: Adobe Illustrator 17.0.0, SVG Export Plug-In . SVG Version: 6.00 Build 0)  -->
<!DOCTYPE svg PUBLIC "-//W3C//DTD SVG 1.1//EN" "http://www.w3.org/Graphics/SVG/1.1/DTD/svg11.dtd">
<svg version="1.1" id="图层_1" xmlns="http://www.w3.org/2000/svg" xmlns:xlink="http://www.w3.org/1999/xlink" x="0px" y="0px"
	 width="16px" height="16px" viewBox="0 0 16 16" enable-background="new 0 0 16 16" xml:space="preserve">
<g>
	
		<rect x="9.556" y="3.068" transform="matrix(-0.7071 -0.7071 0.7071 -0.7071 14.1682 16.7618)" fill="none" width="2" height="4.757"/>
	<polygon fill="none" points="6.045,8.543 6,8.497 6,10 7.503,10 7.459,9.957 8.874,8.543 7.459,7.128 	"/>
	<polygon fill="#006EFF" points="13,13 3,13 3,3 6,3 6,2 2,2 2,14 14,14 14,9 13,9 	"/>
	<path fill="#006EFF" d="M11.887,2h-0.714l-0.35,0.35L7.46,5.714l0,0L6.752,6.421l0,0L5,8h0.503H5v3h3v-0.503L8,11l1.581-1.75
		l0.491-0.491l3.58-3.58L14,4.831V4.113L11.887,2z M7.459,9.957L7.503,10H6V8.497l0.045,0.045l1.414-1.414l1.414,1.414L7.459,9.957z
		 M9.581,7.836L8.167,6.421l3.364-3.364l1.414,1.414L9.581,7.836z"/>
</g>
</svg>
