<?xml version="1.0" encoding="utf-8"?>
<!-- Generator: Adobe Illustrator 17.0.0, SVG Export Plug-In . SVG Version: 6.00 Build 0)  -->
<!DOCTYPE svg PUBLIC "-//W3C//DTD SVG 1.1//EN" "http://www.w3.org/Graphics/SVG/1.1/DTD/svg11.dtd">
<svg version="1.1" id="图层_1" xmlns="http://www.w3.org/2000/svg" xmlns:xlink="http://www.w3.org/1999/xlink" x="0px" y="0px"
	 width="16px" height="16px" viewBox="0 0 16 16" enable-background="new 0 0 16 16" xml:space="preserve">
<g>
	<rect x="7" y="4" fill="#000000" width="1" height="2"/>
	<rect x="8" y="4" fill="#000000" width="1" height="2"/>
	<rect x="7" y="7" fill="#000000" width="1" height="5"/>
	<rect x="8" y="7" fill="#000000" width="1" height="5"/>
	<path fill="#000000" d="M8,2c3.308,0,6,2.692,6,6s-2.692,6-6,6s-6-2.692-6-6S4.692,2,8,2 M8,1C4.134,1,1,4.134,1,8s3.134,7,7,7
		s7-3.134,7-7S11.866,1,8,1L8,1z"/>
</g>
</svg>
